<?xml version="1.0" encoding="UTF-8" standalone="no"?>
<svg
   xmlns:dc="http://purl.org/dc/elements/1.1/"
   xmlns:cc="http://creativecommons.org/ns#"
   xmlns:rdf="http://www.w3.org/1999/02/22-rdf-syntax-ns#"
   xmlns:svg="http://www.w3.org/2000/svg"
   xmlns="http://www.w3.org/2000/svg"
   xmlns:sodipodi="http://sodipodi.sourceforge.net/DTD/sodipodi-0.dtd"
   xmlns:inkscape="http://www.inkscape.org/namespaces/inkscape"
   width="25.9182mm"
   height="15.518086150229916mm"
   viewBox="0 0 25.9182 15.518086150229916"
   version="1.1"
   id="svg9"
   sodipodi:docname="BatterHolderETapePattern.svg"
   inkscape:version="1.0.1 (0767f8302a, 2020-10-17)">
  <metadata
     id="metadata15">
    <rdf:RDF>
      <cc:Work
         rdf:about="">
        <dc:format>image/svg+xml</dc:format>
        <dc:type
           rdf:resource="http://purl.org/dc/dcmitype/StillImage" />
      </cc:Work>
    </rdf:RDF>
  </metadata>
  <defs
     id="defs13" />
  <sodipodi:namedview
     pagecolor="#ffffff"
     bordercolor="#666666"
     borderopacity="1"
     objecttolerance="10"
     gridtolerance="10"
     guidetolerance="10"
     inkscape:pageopacity="0"
     inkscape:pageshadow="2"
     inkscape:window-width="1920"
     inkscape:window-height="997"
     id="namedview11"
     showgrid="false"
     inkscape:zoom="3.144187"
     inkscape:cx="162.28793"
     inkscape:cy="89.435834"
     inkscape:window-x="0"
     inkscape:window-y="0"
     inkscape:window-maximized="1"
     inkscape:current-layer="Sketch" />
  <g
     id="Sketch"
     transform="matrix(1,0,0,-1,12.9591,9.2891)">
    <path
       id="Sketch_w0000"
       d="m -9.955,1.0774349 h -2.75 v -3.17 h 2.75 V -3.57 h 3.25 a 2.465,2.465 0 0 1 1.92394,-2.40489 6,6 0 0 0 9.56212,0 A 2.465,2.465 0 0 1 6.705,-3.57 h 3.25 v 1.985 h 2.75 v 3.17 H 9.955 V 3.4585626 H 6.705 L 3.795829,6.035 v 3 h -7.5626857 l 7e-7,-3 L -6.705,3.7961978 h -3.25 V 1.0774349"
       stroke="#000000"
       stroke-width="0.35 px"
       style="fill:none;fill-opacity:1;fill-rule:evenodd;stroke:#ff0000;stroke-width:0.35;stroke-miterlimit:4;stroke-dasharray:none" />
    <path
       id="Sketch_w0001"
       d="m -2.8025,-0.51921356 a 1.5,1.5 0 1 1 -1,-4.4e-7 v -2.5761525 h 1 v 2.57615294"
       stroke="#000000"
       stroke-width="0.35 px"
       style="fill:none;fill-opacity:1;fill-rule:evenodd;stroke:#ff0000;stroke-width:0.35;stroke-miterlimit:4;stroke-dasharray:none" />
    <path
       id="Sketch_w0002"
       d="m 3.8025,-0.51921356 a 1.5,1.5 0 1 1 -1,-4.4e-7 v -2.5761525 h 1 v 2.57615294"
       stroke="#000000"
       stroke-width="0.35 px"
       style="fill:none;fill-opacity:1;fill-rule:evenodd;stroke:#ff0000;stroke-width:0.35;stroke-miterlimit:4;stroke-dasharray:none" />
    <path
       id="Sketch_w0003"
       d="M -0.70710678,3.785 H -1.5 v 0.5 h 0.79289322 A 0.75,0.75 0 0 0 -0.25,4.74211 V 5.535 h 0.5 V 4.7421068 A 0.75,0.75 0 0 0 0.707107,4.285 H 1.5 v -0.5 H 0.70710678 A 0.75,0.75 0 0 0 0.25,3.32789 V 2.535 h -0.5 V 3.3278932 A 0.75,0.75 0 0 0 -0.707107,3.785"
       stroke="#000000"
       stroke-width="0.35 px"
       style="fill:none;fill-opacity:1;fill-rule:evenodd;stroke:#ff0000;stroke-width:0.35;stroke-miterlimit:4;stroke-dasharray:none" />
    <title
       id="title6">b'Sketch'</title>
    <path
       id="path17"
       d="m 16.503333,1.0774349 h -2.75 v -3.17 h 2.75 V -3.57 h 3.25 a 2.465,2.465 0 0 1 1.92394,-2.40489 6,6 0 0 0 9.56212,0 2.465,2.465 0 0 1 1.92394,2.40489 h 3.25 v 1.985 h 2.75 v 3.17 h -2.75 v 1.8735626 h -3.25 L 30.254162,6.035 v 3 h -7.562685 v -3 L 19.753333,3.7961978 h -3.25 V 1.0774349"
       stroke="#000000"
       stroke-width="0.35 px"
       style="fill:none;fill-opacity:1;fill-rule:evenodd;stroke:#ff0000;stroke-width:0.35;stroke-miterlimit:4;stroke-dasharray:none" />
    <path
       id="path19"
       d="m 23.655833,-0.51921356 a 1.5,1.5 0 1 1 -1,-4.4e-7 v -2.5761525 h 1 v 2.57615294"
       stroke="#000000"
       stroke-width="0.35 px"
       style="fill:none;fill-opacity:1;fill-rule:evenodd;stroke:#ff0000;stroke-width:0.35;stroke-miterlimit:4;stroke-dasharray:none" />
    <path
       id="path21"
       d="m 30.260833,-0.51921356 a 1.5,1.5 0 1 1 -1,-4.4e-7 v -2.5761525 h 1 v 2.57615294"
       stroke="#000000"
       stroke-width="0.35 px"
       style="fill:none;fill-opacity:1;fill-rule:evenodd;stroke:#ff0000;stroke-width:0.35;stroke-miterlimit:4;stroke-dasharray:none" />
    <path
       id="path23"
       d="m 25.751227,3.785 h -0.792894 v 0.5 h 0.792894 a 0.75,0.75 0 0 0 0.457106,0.45711 V 5.535 h 0.5 V 4.7421068 A 0.75,0.75 0 0 0 27.16544,4.285 h 0.792893 v -0.5 H 27.16544 A 0.75,0.75 0 0 0 26.708333,3.32789 V 2.535 h -0.5 V 3.3278932 A 0.75,0.75 0 0 0 25.751226,3.785"
       stroke="#000000"
       stroke-width="0.35 px"
       style="fill:none;fill-opacity:1;fill-rule:evenodd;stroke:#ff0000;stroke-width:0.35;stroke-miterlimit:4;stroke-dasharray:none" />
    <path
       id="path25"
       d="m 42.961666,1.0774349 h -2.75 v -3.17 h 2.75 V -3.57 h 3.25 a 2.465,2.465 0 0 1 1.92394,-2.40489 6,6 0 0 0 9.56212,0 2.465,2.465 0 0 1 1.92394,2.40489 h 3.25 v 1.985 h 2.75 v 3.17 h -2.75 v 1.8735626 h -3.25 L 56.712495,6.035 v 3 H 49.14981 v -3 L 46.211666,3.7961978 h -3.25 V 1.0774349"
       stroke="#000000"
       stroke-width="0.35 px"
       style="fill:none;fill-opacity:1;fill-rule:evenodd;stroke:#ff0000;stroke-width:0.35;stroke-miterlimit:4;stroke-dasharray:none" />
    <path
       id="path27"
       d="m 50.114166,-0.51921356 a 1.5,1.5 0 1 1 -1,-4.4e-7 v -2.5761525 h 1 v 2.57615294"
       stroke="#000000"
       stroke-width="0.35 px"
       style="fill:none;fill-opacity:1;fill-rule:evenodd;stroke:#ff0000;stroke-width:0.35;stroke-miterlimit:4;stroke-dasharray:none" />
    <path
       id="path29"
       d="m 56.719166,-0.51921356 a 1.5,1.5 0 1 1 -1,-4.4e-7 v -2.5761525 h 1 v 2.57615294"
       stroke="#000000"
       stroke-width="0.35 px"
       style="fill:none;fill-opacity:1;fill-rule:evenodd;stroke:#ff0000;stroke-width:0.35;stroke-miterlimit:4;stroke-dasharray:none" />
    <path
       id="path31"
       d="m 52.20956,3.785 h -0.792894 v 0.5 h 0.792894 a 0.75,0.75 0 0 0 0.457106,0.45711 V 5.535 h 0.5 V 4.7421068 A 0.75,0.75 0 0 0 53.623773,4.285 h 0.792893 v -0.5 H 53.623773 A 0.75,0.75 0 0 0 53.166666,3.32789 V 2.535 h -0.5 V 3.3278932 A 0.75,0.75 0 0 0 52.209559,3.785"
       stroke="#000000"
       stroke-width="0.35 px"
       style="fill:none;fill-opacity:1;fill-rule:evenodd;stroke:#ff0000;stroke-width:0.35;stroke-miterlimit:4;stroke-dasharray:none" />
    <path
       id="path33"
       d="m 69.419999,1.0774349 h -2.75 v -3.17 h 2.75 V -3.57 h 3.25 a 2.465,2.465 0 0 1 1.92394,-2.40489 6,6 0 0 0 9.56212,0 2.465,2.465 0 0 1 1.92394,2.40489 h 3.25 v 1.985 h 2.75 v 3.17 h -2.75 v 1.8735626 h -3.25 L 83.170828,6.035 v 3 h -7.562685 v -3 L 72.669999,3.7961978 h -3.25 V 1.0774349"
       stroke="#000000"
       stroke-width="0.35 px"
       style="fill:none;fill-opacity:1;fill-rule:evenodd;stroke:#ff0000;stroke-width:0.35;stroke-miterlimit:4;stroke-dasharray:none" />
    <path
       id="path35"
       d="m 76.572499,-0.51921356 a 1.5,1.5 0 1 1 -1,-4.4e-7 v -2.5761525 h 1 v 2.57615294"
       stroke="#000000"
       stroke-width="0.35 px"
       style="fill:none;fill-opacity:1;fill-rule:evenodd;stroke:#ff0000;stroke-width:0.35;stroke-miterlimit:4;stroke-dasharray:none" />
    <path
       id="path37"
       d="m 83.177499,-0.51921356 a 1.5,1.5 0 1 1 -1,-4.4e-7 v -2.5761525 h 1 v 2.57615294"
       stroke="#000000"
       stroke-width="0.35 px"
       style="fill:none;fill-opacity:1;fill-rule:evenodd;stroke:#ff0000;stroke-width:0.35;stroke-miterlimit:4;stroke-dasharray:none" />
    <path
       id="path39"
       d="m 78.667893,3.785 h -0.792894 v 0.5 h 0.792894 a 0.75,0.75 0 0 0 0.457106,0.45711 V 5.535 h 0.5 V 4.7421068 A 0.75,0.75 0 0 0 80.082106,4.285 h 0.792893 v -0.5 H 80.082106 A 0.75,0.75 0 0 0 79.624999,3.32789 V 2.535 h -0.5 V 3.3278932 A 0.75,0.75 0 0 0 78.667892,3.785"
       stroke="#000000"
       stroke-width="0.35 px"
       style="fill:none;fill-opacity:1;fill-rule:evenodd;stroke:#ff0000;stroke-width:0.35;stroke-miterlimit:4;stroke-dasharray:none" />
    <path
       id="path41"
       d="m 95.878332,1.0774349 h -2.75 v -3.17 h 2.75 V -3.57 h 3.25 a 2.465,2.465 0 0 1 1.923938,-2.40489 6,6 0 0 0 9.56212,0 2.465,2.465 0 0 1 1.92394,2.40489 h 3.25 v 1.985 h 2.75 v 3.17 h -2.75 v 1.8735626 h -3.25 L 109.62916,6.035 v 3 h -7.56268 v -3 L 99.128332,3.7961978 h -3.25 V 1.0774349"
       stroke="#000000"
       stroke-width="0.35 px"
       style="fill:none;fill-opacity:1;fill-rule:evenodd;stroke:#ff0000;stroke-width:0.35;stroke-miterlimit:4;stroke-dasharray:none" />
    <path
       id="path43"
       d="m 103.03083,-0.51921356 a 1.5,1.5 0 1 1 -1,-4.4e-7 v -2.5761525 h 1 v 2.57615294"
       stroke="#000000"
       stroke-width="0.35 px"
       style="fill:none;fill-opacity:1;fill-rule:evenodd;stroke:#ff0000;stroke-width:0.35;stroke-miterlimit:4;stroke-dasharray:none" />
    <path
       id="path45"
       d="m 109.63583,-0.51921356 a 1.5,1.5 0 1 1 -1,-4.4e-7 v -2.5761525 h 1 v 2.57615294"
       stroke="#000000"
       stroke-width="0.35 px"
       style="fill:none;fill-opacity:1;fill-rule:evenodd;stroke:#ff0000;stroke-width:0.35;stroke-miterlimit:4;stroke-dasharray:none" />
    <path
       id="path47"
       d="m 105.12623,3.785 h -0.7929 v 0.5 h 0.7929 a 0.75,0.75 0 0 0 0.4571,0.45711 V 5.535 h 0.5 V 4.7421068 A 0.75,0.75 0 0 0 106.54044,4.285 h 0.79289 v -0.5 h -0.79289 A 0.75,0.75 0 0 0 106.08333,3.32789 V 2.535 h -0.5 V 3.3278932 A 0.75,0.75 0 0 0 105.12623,3.785"
       stroke="#000000"
       stroke-width="0.35 px"
       style="fill:none;fill-opacity:1;fill-rule:evenodd;stroke:#ff0000;stroke-width:0.35;stroke-miterlimit:4;stroke-dasharray:none" />
    <path
       id="path121"
       d="m -9.955,-14.268402 h -2.75 v -3.170002 h 2.75 v -1.477435 h 3.25 a 2.465,2.465 0 0 1 1.92394,-2.404892 6,6 0 0 0 9.56212,0 2.465,2.465 0 0 1 1.92394,2.404892 h 3.25 v 1.985001 h 2.75 v 3.170002 h -2.75 v 1.873564 h -3.25 l -2.909171,2.5764379 v 2.9999999 h -7.5626857 l 7e-7,-2.9999999 L -6.705,-11.549637 h -3.25 v -2.718765"
       stroke="#000000"
       stroke-width="0.35 px"
       style="fill:none;fill-opacity:1;fill-rule:evenodd;stroke:#ff0000;stroke-width:0.35;stroke-miterlimit:4;stroke-dasharray:none" />
    <path
       id="path123"
       d="m -2.8025,-15.865051 a 1.5,1.5 0 1 1 -1,-1e-6 v -2.576153 h 1 v 2.576154"
       stroke="#000000"
       stroke-width="0.35 px"
       style="fill:none;fill-opacity:1;fill-rule:evenodd;stroke:#ff0000;stroke-width:0.35;stroke-miterlimit:4;stroke-dasharray:none" />
    <path
       id="path125"
       d="m 3.8025,-15.865051 a 1.5,1.5 0 1 1 -1,-1e-6 v -2.576153 h 1 v 2.576154"
       stroke="#000000"
       stroke-width="0.35 px"
       style="fill:none;fill-opacity:1;fill-rule:evenodd;stroke:#ff0000;stroke-width:0.35;stroke-miterlimit:4;stroke-dasharray:none" />
    <path
       id="path127"
       d="M -0.70710678,-11.560835 H -1.5 v 0.5 h 0.79289322 A 0.75,0.75 0 0 0 -0.25,-10.603724 v 0.7928899 h 0.5 v -0.7928939 a 0.75,0.75 0 0 0 0.457107,-0.457107 H 1.5 v -0.5 H 0.70710678 A 0.75,0.75 0 0 0 0.25,-12.017945 v -0.792891 h -0.5 v 0.792894 a 0.75,0.75 0 0 0 -0.457107,0.457107"
       stroke="#000000"
       stroke-width="0.35 px"
       style="fill:none;fill-opacity:1;fill-rule:evenodd;stroke:#ff0000;stroke-width:0.35;stroke-miterlimit:4;stroke-dasharray:none" />
    <path
       id="path129"
       d="m 16.503333,-14.268402 h -2.75 v -3.170002 h 2.75 v -1.477435 h 3.25 a 2.465,2.465 0 0 1 1.92394,-2.404892 6,6 0 0 0 9.56212,0 2.465,2.465 0 0 1 1.92394,2.404892 h 3.25 v 1.985001 h 2.75 v 3.170002 h -2.75 v 1.873564 h -3.25 l -2.909171,2.5764379 v 2.9999999 h -7.562685 v -2.9999999 l -2.938144,-2.2388029 h -3.25 v -2.718765"
       stroke="#000000"
       stroke-width="0.35 px"
       style="fill:none;fill-opacity:1;fill-rule:evenodd;stroke:#ff0000;stroke-width:0.35;stroke-miterlimit:4;stroke-dasharray:none" />
    <path
       id="path131"
       d="m 23.655833,-15.865051 a 1.5,1.5 0 1 1 -1,-1e-6 v -2.576153 h 1 v 2.576154"
       stroke="#000000"
       stroke-width="0.35 px"
       style="fill:none;fill-opacity:1;fill-rule:evenodd;stroke:#ff0000;stroke-width:0.35;stroke-miterlimit:4;stroke-dasharray:none" />
    <path
       id="path133"
       d="m 30.260833,-15.865051 a 1.5,1.5 0 1 1 -1,-1e-6 v -2.576153 h 1 v 2.576154"
       stroke="#000000"
       stroke-width="0.35 px"
       style="fill:none;fill-opacity:1;fill-rule:evenodd;stroke:#ff0000;stroke-width:0.35;stroke-miterlimit:4;stroke-dasharray:none" />
    <path
       id="path135"
       d="m 25.751227,-11.560835 h -0.792894 v 0.5 h 0.792894 a 0.75,0.75 0 0 0 0.457106,0.457111 v 0.7928899 h 0.5 v -0.7928939 a 0.75,0.75 0 0 0 0.457107,-0.457107 h 0.792893 v -0.5 H 27.16544 a 0.75,0.75 0 0 0 -0.457107,-0.45711 v -0.792891 h -0.5 v 0.792894 a 0.75,0.75 0 0 0 -0.457107,0.457107"
       stroke="#000000"
       stroke-width="0.35 px"
       style="fill:none;fill-opacity:1;fill-rule:evenodd;stroke:#ff0000;stroke-width:0.35;stroke-miterlimit:4;stroke-dasharray:none" />
    <path
       id="path137"
       d="m 42.961666,-14.268402 h -2.75 v -3.170002 h 2.75 v -1.477435 h 3.25 a 2.465,2.465 0 0 1 1.92394,-2.404892 6,6 0 0 0 9.56212,0 2.465,2.465 0 0 1 1.92394,2.404892 h 3.25 v 1.985001 h 2.75 v 3.170002 h -2.75 v 1.873564 h -3.25 l -2.909171,2.5764379 v 2.9999999 H 49.14981 v -2.9999999 l -2.938144,-2.2388029 h -3.25 v -2.718765"
       stroke="#000000"
       stroke-width="0.35 px"
       style="fill:none;fill-opacity:1;fill-rule:evenodd;stroke:#ff0000;stroke-width:0.35;stroke-miterlimit:4;stroke-dasharray:none" />
    <path
       id="path139"
       d="m 50.114166,-15.865051 a 1.5,1.5 0 1 1 -1,-1e-6 v -2.576153 h 1 v 2.576154"
       stroke="#000000"
       stroke-width="0.35 px"
       style="fill:none;fill-opacity:1;fill-rule:evenodd;stroke:#ff0000;stroke-width:0.35;stroke-miterlimit:4;stroke-dasharray:none" />
    <path
       id="path141"
       d="m 56.719166,-15.865051 a 1.5,1.5 0 1 1 -1,-1e-6 v -2.576153 h 1 v 2.576154"
       stroke="#000000"
       stroke-width="0.35 px"
       style="fill:none;fill-opacity:1;fill-rule:evenodd;stroke:#ff0000;stroke-width:0.35;stroke-miterlimit:4;stroke-dasharray:none" />
    <path
       id="path143"
       d="m 52.20956,-11.560835 h -0.792894 v 0.5 h 0.792894 a 0.75,0.75 0 0 0 0.457106,0.457111 v 0.7928899 h 0.5 v -0.7928939 a 0.75,0.75 0 0 0 0.457107,-0.457107 h 0.792893 v -0.5 h -0.792893 a 0.75,0.75 0 0 0 -0.457107,-0.45711 v -0.792891 h -0.5 v 0.792894 a 0.75,0.75 0 0 0 -0.457107,0.457107"
       stroke="#000000"
       stroke-width="0.35 px"
       style="fill:none;fill-opacity:1;fill-rule:evenodd;stroke:#ff0000;stroke-width:0.35;stroke-miterlimit:4;stroke-dasharray:none" />
    <path
       id="path145"
       d="m 69.419999,-14.268402 h -2.75 v -3.170002 h 2.75 v -1.477435 h 3.25 a 2.465,2.465 0 0 1 1.92394,-2.404892 6,6 0 0 0 9.56212,0 2.465,2.465 0 0 1 1.92394,2.404892 h 3.25 v 1.985001 h 2.75 v 3.170002 h -2.75 v 1.873564 h -3.25 l -2.909171,2.5764379 v 2.9999999 h -7.562685 v -2.9999999 l -2.938144,-2.2388029 h -3.25 v -2.718765"
       stroke="#000000"
       stroke-width="0.35 px"
       style="fill:none;fill-opacity:1;fill-rule:evenodd;stroke:#ff0000;stroke-width:0.35;stroke-miterlimit:4;stroke-dasharray:none" />
    <path
       id="path147"
       d="m 76.572499,-15.865051 a 1.5,1.5 0 1 1 -1,-1e-6 v -2.576153 h 1 v 2.576154"
       stroke="#000000"
       stroke-width="0.35 px"
       style="fill:none;fill-opacity:1;fill-rule:evenodd;stroke:#ff0000;stroke-width:0.35;stroke-miterlimit:4;stroke-dasharray:none" />
    <path
       id="path149"
       d="m 83.177499,-15.865051 a 1.5,1.5 0 1 1 -1,-1e-6 v -2.576153 h 1 v 2.576154"
       stroke="#000000"
       stroke-width="0.35 px"
       style="fill:none;fill-opacity:1;fill-rule:evenodd;stroke:#ff0000;stroke-width:0.35;stroke-miterlimit:4;stroke-dasharray:none" />
    <path
       id="path151"
       d="m 78.667893,-11.560835 h -0.792894 v 0.5 h 0.792894 a 0.75,0.75 0 0 0 0.457106,0.457111 v 0.7928899 h 0.5 v -0.7928939 a 0.75,0.75 0 0 0 0.457107,-0.457107 h 0.792893 v -0.5 h -0.792893 a 0.75,0.75 0 0 0 -0.457107,-0.45711 v -0.792891 h -0.5 v 0.792894 a 0.75,0.75 0 0 0 -0.457107,0.457107"
       stroke="#000000"
       stroke-width="0.35 px"
       style="fill:none;fill-opacity:1;fill-rule:evenodd;stroke:#ff0000;stroke-width:0.35;stroke-miterlimit:4;stroke-dasharray:none" />
    <path
       id="path153"
       d="m 95.878332,-14.268402 h -2.75 v -3.170002 h 2.75 v -1.477435 h 3.25 a 2.465,2.465 0 0 1 1.923938,-2.404892 6,6 0 0 0 9.56212,0 2.465,2.465 0 0 1 1.92394,2.404892 h 3.25 v 1.985001 h 2.75 v 3.170002 h -2.75 v 1.873564 h -3.25 l -2.90917,2.5764379 v 2.9999999 h -7.56268 v -2.9999999 l -2.938148,-2.2388029 h -3.25 v -2.718765"
       stroke="#000000"
       stroke-width="0.35 px"
       style="fill:none;fill-opacity:1;fill-rule:evenodd;stroke:#ff0000;stroke-width:0.35;stroke-miterlimit:4;stroke-dasharray:none" />
    <path
       id="path155"
       d="m 103.03083,-15.865051 a 1.5,1.5 0 1 1 -1,-1e-6 v -2.576153 h 1 v 2.576154"
       stroke="#000000"
       stroke-width="0.35 px"
       style="fill:none;fill-opacity:1;fill-rule:evenodd;stroke:#ff0000;stroke-width:0.35;stroke-miterlimit:4;stroke-dasharray:none" />
    <path
       id="path157"
       d="m 109.63583,-15.865051 a 1.5,1.5 0 1 1 -1,-1e-6 v -2.576153 h 1 v 2.576154"
       stroke="#000000"
       stroke-width="0.35 px"
       style="fill:none;fill-opacity:1;fill-rule:evenodd;stroke:#ff0000;stroke-width:0.35;stroke-miterlimit:4;stroke-dasharray:none" />
    <path
       id="path159"
       d="m 105.12623,-11.560835 h -0.7929 v 0.5 h 0.7929 a 0.75,0.75 0 0 0 0.4571,0.457111 v 0.7928899 h 0.5 v -0.7928939 a 0.75,0.75 0 0 0 0.45711,-0.457107 h 0.79289 v -0.5 h -0.79289 a 0.75,0.75 0 0 0 -0.45711,-0.45711 v -0.792891 h -0.5 v 0.792894 a 0.75,0.75 0 0 0 -0.4571,0.457107"
       stroke="#000000"
       stroke-width="0.35 px"
       style="fill:none;fill-opacity:1;fill-rule:evenodd;stroke:#ff0000;stroke-width:0.35;stroke-miterlimit:4;stroke-dasharray:none" />
  </g>
</svg>
