<?xml version="1.0"?>
<!DOCTYPE svg PUBLIC "-//W3C//DTD SVG 1.1//EN" "http://www.w3.org/Graphics/SVG/1.1/DTD/svg11.dtd">
<svg width="25.9182mm" height="15.518086150229916mm" viewBox="0 0 25.9182 15.518086150229916" xmlns="http://www.w3.org/2000/svg" version="1.1">
<g id="Sketch" transform="translate(12.959100,9.289100) scale(1,-1)">
<path id="Sketch_w0000"  d="M -9.955 1.0774349023448 L -12.705 1.0774349023448 L -12.705 -2.0925650976552 L -9.955 -2.0925650976552 L -9.955 -3.569999999999999 L -6.705 -3.569999999999999 A 2.465 2.465 0 0 1 -4.78106 -5.97489A 6 6 0 0 0 4.78106 -5.97489A 2.465 2.465 0 0 1 6.705 -3.57L 9.955 -3.5700000000000003 L 9.955 -1.585 L 12.705 -1.585 L 12.705000000000002 1.585 L 9.955000000000002 1.585 L 9.955000000000002 3.458562596600001 L 6.705000000000001 3.4585625966000006 L 3.7958289703320003 6.035 L 3.7958289703320003 9.035 L -3.766856695758628 9.035 L -3.766855983773064 6.0350000000000845 L -6.705 3.796197836167 L -9.955 3.796197836167 L -9.955 1.0774349023448 " stroke="#000000" stroke-width="0.35 px" style="stroke-width:0.35;stroke-miterlimit:4;stroke-dasharray:none;fill:none;fill-opacity:1;fill-rule: evenodd"/>
<path id="Sketch_w0001"  d="M -2.80249999999997 -0.519213562373084 A 1.5 1.5 0 1 1 -3.8025 -0.519214L -3.8025 -3.095366454478 L -2.8025 -3.095366454478 L -2.80249999999997 -0.519213562373084 " stroke="#000000" stroke-width="0.35 px" style="stroke-width:0.35;stroke-miterlimit:4;stroke-dasharray:none;fill:none;fill-opacity:1;fill-rule: evenodd"/>
<path id="Sketch_w0002"  d="M 3.802500000000107 -0.519213562373022 A 1.5 1.5 0 1 1 2.8025 -0.519214L 2.8025 -3.095366454479 L 3.8025 -3.095366454479 L 3.802500000000107 -0.5192135623730221 " stroke="#000000" stroke-width="0.35 px" style="stroke-width:0.35;stroke-miterlimit:4;stroke-dasharray:none;fill:none;fill-opacity:1;fill-rule: evenodd"/>
<path id="Sketch_w0003"  d="M -0.707106781186597 3.785000000000142 L -1.5 3.785000000000142 L -1.5 4.285 L -0.707106781186597 4.285 A 0.75 0.75 0 0 0 -0.25 4.74211L -0.25 5.535 L 0.24999999999986 5.535 L 0.24999999999986 4.742106781186598 A 0.75 0.75 0 0 0 0.707107 4.285L 1.5000000000000002 4.284999999999858 L 1.5000000000000002 3.785 L 0.7071067811865983 3.785 A 0.75 0.75 0 0 0 0.25 3.32789L 0.24999999999999975 2.535 L -0.2499999999998563 2.535 L -0.2499999999998563 3.327893218813402 A 0.75 0.75 0 0 0 -0.707107 3.785" stroke="#000000" stroke-width="0.35 px" style="stroke-width:0.35;stroke-miterlimit:4;stroke-dasharray:none;fill:none;fill-opacity:1;fill-rule: evenodd"/>
<title>b'Sketch'</title>
</g>
</svg>