<?xml version="1.0" encoding="UTF-8" standalone="no"?>
<svg
   xmlns:dc="http://purl.org/dc/elements/1.1/"
   xmlns:cc="http://creativecommons.org/ns#"
   xmlns:rdf="http://www.w3.org/1999/02/22-rdf-syntax-ns#"
   xmlns:svg="http://www.w3.org/2000/svg"
   xmlns="http://www.w3.org/2000/svg"
   xmlns:sodipodi="http://sodipodi.sourceforge.net/DTD/sodipodi-0.dtd"
   xmlns:inkscape="http://www.inkscape.org/namespaces/inkscape"
   viewBox="0 0 793.7007874015749 1122.5196850393702"
   width="793.7007874015749"
   height="1122.5196850393702"
   version="1.1"
   id="svg70"
   sodipodi:docname="programming-fixture-mid.dxf"
   inkscape:version="1.0.1 (0767f8302a, 2020-10-17)">
  <metadata
     id="metadata74">
    <rdf:RDF>
      <cc:Work
         rdf:about="">
        <dc:format>image/svg+xml</dc:format>
        <dc:type
           rdf:resource="http://purl.org/dc/dcmitype/StillImage" />
        <dc:title></dc:title>
      </cc:Work>
    </rdf:RDF>
  </metadata>
  <sodipodi:namedview
     pagecolor="#ffffff"
     bordercolor="#666666"
     borderopacity="1"
     objecttolerance="10"
     gridtolerance="10"
     guidetolerance="10"
     inkscape:pageopacity="0"
     inkscape:pageshadow="2"
     inkscape:window-width="1920"
     inkscape:window-height="997"
     id="namedview72"
     showgrid="false"
     inkscape:zoom="2.9362515"
     inkscape:cx="128.77174"
     inkscape:cy="107.74469"
     inkscape:window-x="0"
     inkscape:window-y="0"
     inkscape:window-maximized="1"
     inkscape:current-layer="g66" />
  <defs
     id="defs14">
    <marker
       id="DistanceX"
       orient="auto"
       refX="0.0"
       refY="0.0"
       style="overflow:visible">
      <path
         d="M 3,-3 L -3,3 M 0,-5 L  0,5"
         style="stroke:#000000; stroke-width:0.5"
         id="path2" />
    </marker>
    <pattern
       id="Hatch"
       patternUnits="userSpaceOnUse"
       width="8"
       height="8"
       x="0"
       y="0">
      <path
         d="M8 4 l-4,4"
         stroke="#000000"
         stroke-width="0.25"
         linecap="square"
         id="path5" />
      <path
         d="M6 2 l-4,4"
         stroke="#000000"
         stroke-width="0.25"
         linecap="square"
         id="path7" />
      <path
         d="M4 0 l-4,4"
         stroke="#000000"
         stroke-width="0.25"
         linecap="square"
         id="path9" />
    </pattern>
    <symbol
       id="*MODEL_SPACE" />
    <symbol
       id="*PAPER_SPACE" />
  </defs>
  <g
     inkscape:groupmode="layer"
     inkscape:label="0"
     id="g16" />
  <g
     inkscape:groupmode="layer"
     inkscape:label="none"
     id="g18" />
  <g
     inkscape:groupmode="layer"
     inkscape:label="Sketch001"
     id="g66">
    <path
       d="M 14.262654,177.47399 V 26.292889"
       style="fill:none;stroke:#ff0000"
       id="path20" />
    <path
       d="M 33.160292,7.3952888 A 18.897638,18.897638 0 0 0 14.262654,26.292889"
       style="fill:none;stroke:#ff0000"
       id="path22" />
    <path
       d="M 33.160292,7.3952888 H 184.34139"
       style="fill:none;stroke:#ff0000"
       id="path24" />
    <path
       d="M 203.23903,26.292889 A 18.897638,18.897638 0 0 0 184.34139,7.3952888"
       style="fill:none;stroke:#ff0000"
       id="path26" />
    <path
       d="M 203.23903,26.292889 V 177.47399"
       style="fill:none;stroke:#ff0000"
       id="path28" />
    <path
       d="m 184.34139,196.37169 a 18.897638,18.897638 0 0 0 18.89764,-18.8977"
       style="fill:none;stroke:#ff0000"
       id="path30" />
    <path
       d="M 184.34139,196.37169 H 33.160292"
       style="fill:none;stroke:#ff0000"
       id="path32" />
    <path
       d="m 14.262654,177.47399 a 18.897638,18.897638 0 0 0 18.897638,18.8977"
       style="fill:none;stroke:#ff0000"
       id="path34" />
    <path
       d="m 39.01856,26.292889 a 5.858268,5.858268 0 1 0 -11.716536,0 5.858268,5.858268 0 1 0 11.716536,0 z"
       style="fill:none;stroke:#0000ff"
       id="path36" />
    <path
       d="m 190.19966,26.292889 a 5.85827,5.85827 0 1 0 -11.71654,0 5.85827,5.85827 0 1 0 11.71654,0 z"
       style="fill:none;stroke:#0000ff"
       id="path38" />
    <path
       d="m 190.19966,177.47399 a 5.85827,5.85827 0 1 0 -11.71654,0 5.85827,5.85827 0 1 0 11.71654,0 z"
       style="fill:none;stroke:#0000ff"
       id="path40" />
    <path
       d="m 39.01856,177.47399 a 5.858268,5.858268 0 1 0 -11.716536,0 5.858268,5.858268 0 1 0 11.716536,0 z"
       style="fill:none;stroke:#0000ff"
       id="path42" />
    <path
       d="m 63.594937,166.98549 39.486613,-16.0188"
       style="fill:none;stroke:#0000ff"
       id="path44" />
    <path
       d="m 103.08155,150.96669 h 11.33858"
       style="fill:none;stroke:#0000ff"
       id="path46" />
    <path
       d="m 114.42013,150.96669 39.48662,16.0188"
       style="fill:none;stroke:#0000ff"
       id="path48" />
    <path
       d="M 181.18624,85.388389 153.90675,166.98549"
       style="fill:none;stroke:#0000ff"
       id="path50" />
    <path
       d="m 137.10705,74.464589 44.07919,10.9238"
       style="fill:none;stroke:#0000ff"
       id="path52" />
    <path
       d="m 129.54025,66.559589 7.5668,7.905"
       style="fill:none;stroke:#0000ff"
       id="path54" />
    <path
       d="m 108.75084,33.702689 20.78941,32.8569"
       style="fill:none;stroke:#0000ff"
       id="path56" />
    <path
       d="m 87.961438,66.559589 20.789402,-32.8569"
       style="fill:none;stroke:#0000ff"
       id="path58" />
    <path
       d="m 80.394635,74.464589 7.566803,-7.905"
       style="fill:none;stroke:#0000ff"
       id="path60" />
    <path
       d="m 36.315441,85.388389 44.079194,-10.9238"
       style="fill:none;stroke:#0000ff"
       id="path62" />
    <path
       d="M 63.594937,166.98549 36.315441,85.388389"
       style="fill:none;stroke:#0000ff"
       id="path64" />
  </g>
  <desc
     id="desc68">programming-fixture-mid.dxf - scale = 1.000000, origin = (0.000000, 0.000000), method = manual</desc>
</svg>
