<?xml version="1.0" encoding="UTF-8" standalone="no"?>
<svg
   xmlns:dc="http://purl.org/dc/elements/1.1/"
   xmlns:cc="http://creativecommons.org/ns#"
   xmlns:rdf="http://www.w3.org/1999/02/22-rdf-syntax-ns#"
   xmlns:svg="http://www.w3.org/2000/svg"
   xmlns="http://www.w3.org/2000/svg"
   xmlns:sodipodi="http://sodipodi.sourceforge.net/DTD/sodipodi-0.dtd"
   xmlns:inkscape="http://www.inkscape.org/namespaces/inkscape"
   viewBox="0 0 793.7007874015749 1122.5196850393702"
   width="793.7007874015749"
   height="1122.5196850393702"
   version="1.1"
   id="svg108"
   sodipodi:docname="programming-fixture-top.svg"
   inkscape:version="1.0.1 (0767f8302a, 2020-10-17)">
  <metadata
     id="metadata112">
    <rdf:RDF>
      <cc:Work
         rdf:about="">
        <dc:format>image/svg+xml</dc:format>
        <dc:type
           rdf:resource="http://purl.org/dc/dcmitype/StillImage" />
        <dc:title />
      </cc:Work>
    </rdf:RDF>
  </metadata>
  <sodipodi:namedview
     pagecolor="#ffffff"
     bordercolor="#666666"
     borderopacity="1"
     objecttolerance="10"
     gridtolerance="10"
     guidetolerance="10"
     inkscape:pageopacity="0"
     inkscape:pageshadow="2"
     inkscape:window-width="1920"
     inkscape:window-height="997"
     id="namedview110"
     showgrid="false"
     inkscape:zoom="2.9362514"
     inkscape:cx="63.202071"
     inkscape:cy="127.14084"
     inkscape:window-x="0"
     inkscape:window-y="0"
     inkscape:window-maximized="1"
     inkscape:current-layer="g104"
     inkscape:document-rotation="0" />
  <defs
     id="defs14">
    <marker
       id="DistanceX"
       orient="auto"
       refX="0.0"
       refY="0.0"
       style="overflow:visible">
      <path
         d="M 3,-3 L -3,3 M 0,-5 L  0,5"
         style="stroke:#000000; stroke-width:0.5"
         id="path2" />
    </marker>
    <pattern
       id="Hatch"
       patternUnits="userSpaceOnUse"
       width="8"
       height="8"
       x="0"
       y="0">
      <path
         d="M8 4 l-4,4"
         stroke="#000000"
         stroke-width="0.25"
         linecap="square"
         id="path5" />
      <path
         d="M6 2 l-4,4"
         stroke="#000000"
         stroke-width="0.25"
         linecap="square"
         id="path7" />
      <path
         d="M4 0 l-4,4"
         stroke="#000000"
         stroke-width="0.25"
         linecap="square"
         id="path9" />
    </pattern>
    <symbol
       id="*MODEL_SPACE" />
    <symbol
       id="*PAPER_SPACE" />
  </defs>
  <g
     inkscape:groupmode="layer"
     inkscape:label="0"
     id="g16" />
  <g
     inkscape:groupmode="layer"
     inkscape:label="none"
     id="g18" />
  <g
     inkscape:groupmode="layer"
     inkscape:label="Sketch002"
     id="g104">
    <g
       inkscape:label="Hershey Text"
       style="fill:none;stroke:#000000;stroke-linecap:round;stroke-linejoin:round"
       id="g245">
      <g
         transform="translate(156.277,90.8278)"
         id="g189">
        <path
           d="m 662,504 -32,63 -63,63 -63,32 H 378 L 315,630 252,567 220,504 189,410 V 252 l 31,-94 32,-63.5 63,-63 L 378,0 h 126 l 63,31.5 63,63 32,63.5 v 94 m -158,0 h 158"
           style="stroke-width:1.077in"
           transform="scale(0.0096,-0.0096)"
           id="path183" />
        <path
           d="M 220,662 V 0 M 220,662 662,0 m 0,662 V 0"
           style="stroke-width:1.077in"
           transform="matrix(0.0096,0,0,-0.0096,6.3552,0)"
           id="path185" />
        <path
           d="M 220,662 V 0 m 0,662 h 221 l 95,-32 62,-63 32,-63 32,-94 V 252 L 630,158 598,94.5 536,31.5 441,0 H 220"
           style="stroke-width:1.077in"
           transform="matrix(0.0096,0,0,-0.0096,13.008,0)"
           id="path187" />
      </g>
      <g
         transform="translate(158.101,100.428)"
         id="g197">
        <path
           d="M 252,662 H 598 L 410,410 h 94 l 63,-32 31,-32 32,-94 V 189 L 598,94.5 536,31.5 441,0 H 346 L 252,31.5 220,63 189,126"
           style="stroke-width:1.077in"
           transform="scale(0.0096,-0.0096)"
           id="path191" />
        <path
           d="M 126,662 378,0 M 630,662 378,0"
           style="stroke-width:1.077in"
           transform="matrix(0.0096,0,0,-0.0096,6.048,0)"
           id="path193" />
        <path
           d="M 252,662 H 598 L 410,410 h 94 l 63,-32 31,-32 32,-94 V 189 L 598,94.5 536,31.5 441,0 H 346 L 252,31.5 220,63 189,126"
           style="stroke-width:1.077in"
           transform="matrix(0.0096,0,0,-0.0096,11.4912,0)"
           id="path195" />
      </g>
      <g
         transform="translate(146.908,110.028)"
         id="g209">
        <path
           d="m 630,567 -63,63 -95,32 H 346 l -94,-32 -63,-63 v -63 l 31,-63 32,-31 63,-32 189,-63 63,-31 31,-32 32,-63 V 94.5 L 567,31.5 472,0 H 346 l -94,31.5 -63,63"
           style="stroke-width:1.077in"
           transform="scale(0.0096,-0.0096)"
           id="path199" />
        <path
           d="M 158,662 315,0 M 472,662 315,0 M 472,662 630,0 M 788,662 630,0"
           style="stroke-width:1.077in"
           transform="matrix(0.0096,0,0,-0.0096,6.048,0)"
           id="path201" />
        <path
           d="M 220,662 V 0 m 0,662 h 221 l 95,-32 62,-63 32,-63 32,-94 V 252 L 630,158 598,94.5 536,31.5 441,0 H 220"
           style="stroke-width:1.077in"
           transform="matrix(0.0096,0,0,-0.0096,13.3056,0)"
           id="path203" />
        <path
           d="M 220,662 V 0"
           style="stroke-width:1.077in"
           transform="matrix(0.0096,0,0,-0.0096,19.6608,0)"
           id="path205" />
        <path
           d="M 378,662 315,630 252,567 220,504 189,410 V 252 l 31,-94 32,-63.5 63,-63 L 378,0 h 126 l 63,31.5 63,63 32,63.5 31,94 v 158 l -31,94 -32,63 -63,63 -63,32 H 378"
           style="stroke-width:1.077in"
           transform="matrix(0.0096,0,0,-0.0096,22.08,0)"
           id="path207" />
      </g>
      <g
         transform="translate(144.479,119.628)"
         id="g221">
        <path
           d="m 630,567 -63,63 -95,32 H 346 l -94,-32 -63,-63 v -63 l 31,-63 32,-31 63,-32 189,-63 63,-31 31,-32 32,-63 V 94.5 L 567,31.5 472,0 H 346 l -94,31.5 -63,63"
           style="stroke-width:1.077in"
           transform="scale(0.0096,-0.0096)"
           id="path211" />
        <path
           d="M 158,662 315,0 M 472,662 315,0 M 472,662 630,0 M 788,662 630,0"
           style="stroke-width:1.077in"
           transform="matrix(0.0096,0,0,-0.0096,6.048,0)"
           id="path213" />
        <path
           d="m 662,504 -32,63 -63,63 -63,32 H 378 L 315,630 252,567 220,504 189,410 V 252 l 31,-94 32,-63.5 63,-63 L 378,0 h 126 l 63,31.5 63,63 32,63.5"
           style="stroke-width:1.077in"
           transform="matrix(0.0096,0,0,-0.0096,13.3056,0)"
           id="path215" />
        <path
           d="M 220,662 V 0 m 0,0 h 378"
           style="stroke-width:1.077in"
           transform="matrix(0.0096,0,0,-0.0096,19.6608,0)"
           id="path217" />
        <path
           d="M 220,662 V 0 M 662,662 220,220 M 378,378 662,0"
           style="stroke-width:1.077in"
           transform="matrix(0.0096,0,0,-0.0096,24.8064,0)"
           id="path219" />
      </g>
      <g
         transform="translate(146.917,129.228)"
         id="g233">
        <path
           d="M 220,662 V 0 m 0,662 h 284 l 94,-32 32,-32 32,-62 V 472 L 630,410 598,378 504,346 H 220 M 441,346 662,0"
           style="stroke-width:1.077in"
           transform="scale(0.0096,-0.0096)"
           id="path223" />
        <path
           d="M 220,662 V 0 m 0,662 H 630 M 220,346 H 472 M 220,0 h 410"
           style="stroke-width:1.077in"
           transform="matrix(0.0096,0,0,-0.0096,6.3552,0)"
           id="path225" />
        <path
           d="m 630,567 -63,63 -95,32 H 346 l -94,-32 -63,-63 v -63 l 31,-63 32,-31 63,-32 189,-63 63,-31 31,-32 32,-63 V 94.5 L 567,31.5 472,0 H 346 l -94,31.5 -63,63"
           style="stroke-width:1.077in"
           transform="matrix(0.0096,0,0,-0.0096,12.096,0)"
           id="path227" />
        <path
           d="M 220,662 V 0 m 0,662 H 630 M 220,346 H 472 M 220,0 h 410"
           style="stroke-width:1.077in"
           transform="matrix(0.0096,0,0,-0.0096,18.144,0)"
           id="path229" />
        <path
           d="M 346,662 V 0 M 126,662 h 441"
           style="stroke-width:1.077in"
           transform="matrix(0.0096,0,0,-0.0096,23.8848,0)"
           id="path231" />
      </g>
      <g
         transform="translate(151.141,138.828)"
         id="g243">
        <path
           d="M 220,662 V 0 m 0,662 h 284 l 94,-32 32,-32 32,-62 v -64 l -32,-62 -32,-32 -94,-32 m -284,0 h 284 l 94,-31 32,-31 32,-64 V 126 L 630,63 598,31.5 504,0 H 220"
           style="stroke-width:1.077in"
           transform="scale(0.0096,-0.0096)"
           id="path235" />
        <path
           d="M 378,662 315,630 252,567 220,504 189,410 V 252 l 31,-94 32,-63.5 63,-63 L 378,0 h 126 l 63,31.5 63,63 32,63.5 31,94 v 158 l -31,94 -32,63 -63,63 -63,32 H 378"
           style="stroke-width:1.077in"
           transform="matrix(0.0096,0,0,-0.0096,6.3552,0)"
           id="path237" />
        <path
           d="M 378,662 315,630 252,567 220,504 189,410 V 252 l 31,-94 32,-63.5 63,-63 L 378,0 h 126 l 63,31.5 63,63 32,63.5 31,94 v 158 l -31,94 -32,63 -63,63 -63,32 H 378"
           style="stroke-width:1.077in"
           transform="matrix(0.0096,0,0,-0.0096,13.008,0)"
           id="path239" />
        <path
           d="M 346,662 V 0 M 126,662 h 441"
           style="stroke-width:1.077in"
           transform="matrix(0.0096,0,0,-0.0096,19.6608,0)"
           id="path241" />
      </g>
    </g>
    <path
       d="M 185.01283,159.19616 H 128.31988"
       style="fill:none;stroke:#ff0000"
       id="path20" />
    <path
       d="m 128.31988,159.19616 a 18.897638,18.897638 0 0 0 -18.8976,18.8976"
       style="fill:none;stroke:#ff0000"
       id="path22" />
    <path
       d="m 109.42228,178.09376 v 9.4489"
       style="fill:none;stroke:#ff0000"
       id="path24" />
    <path
       d="m 90.524684,206.44026 a 18.897638,18.897638 0 0 0 18.897596,-18.8976"
       style="fill:none;stroke:#ff0000"
       id="path26" />
    <path
       d="M 90.524684,206.44026 H 33.831783"
       style="fill:none;stroke:#ff0000"
       id="path28" />
    <path
       d="m 14.934083,187.54266 a 18.897638,18.897638 0 0 0 18.8977,18.8976"
       style="fill:none;stroke:#ff0000"
       id="path30" />
    <path
       d="m 14.934083,149.74736 v 37.7953"
       style="fill:none;stroke:#ff0000"
       id="path32" />
    <path
       d="m 26.272683,138.40876 a 11.338583,11.338583 0 0 0 -11.3386,11.3386"
       style="fill:none;stroke:#ff0000"
       id="path34" />
    <path
       d="m 33.831783,138.40876 h -7.5591"
       style="fill:none;stroke:#ff0000"
       id="path36" />
    <path
       d="m 33.831783,138.40876 a 11.338583,11.338583 0 0 0 11.3385,-11.3386"
       style="fill:none;stroke:#ff0000"
       id="path38" />
    <path
       d="M 45.170283,96.833959 V 127.07016"
       style="fill:none;stroke:#ff0000"
       id="path40" />
    <path
       d="m 45.170283,96.833959 a 11.338583,11.338583 0 0 0 -11.3385,-11.3386"
       style="fill:none;stroke:#ff0000"
       id="path42" />
    <path
       d="m 26.272683,85.495359 h 7.5591"
       style="fill:none;stroke:#ff0000"
       id="path44" />
    <path
       d="m 14.934083,74.156789 a 11.338583,11.338583 0 0 0 11.3386,11.33857"
       style="fill:none;stroke:#ff0000"
       id="path46" />
    <path
       d="M 14.934083,74.156789 V 36.361509"
       style="fill:none;stroke:#ff0000"
       id="path48" />
    <path
       d="m 33.831783,17.463878 a 18.897638,18.897638 0 0 0 -18.8977,18.897631"
       style="fill:none;stroke:#ff0000"
       id="path50" />
    <path
       d="M 33.831783,17.463878 H 90.524684"
       style="fill:none;stroke:#ff0000"
       id="path52" />
    <path
       d="M 109.42228,36.361509 A 18.897638,18.897638 0 0 0 90.524684,17.463878"
       style="fill:none;stroke:#ff0000"
       id="path54" />
    <path
       d="m 109.42228,45.810329 v -9.44882"
       style="fill:none;stroke:#ff0000"
       id="path56" />
    <path
       d="m 109.42228,45.810329 a 18.897638,18.897638 0 0 0 18.8976,18.89764"
       style="fill:none;stroke:#ff0000"
       id="path58" />
    <path
       d="m 128.31988,64.707969 h 56.69295"
       style="fill:none;stroke:#ff0000"
       id="path60" />
    <path
       d="M 203.91047,83.605609 A 18.897638,18.897638 0 0 0 185.01283,64.707969"
       style="fill:none;stroke:#ff0000"
       id="path62" />
    <path
       d="M 203.91047,83.605609 V 140.29856"
       style="fill:none;stroke:#ff0000"
       id="path64" />
    <path
       d="m 185.01284,159.19616 a 18.897638,18.897638 0 0 0 18.89763,-18.8976"
       style="fill:none;stroke:#ff0000"
       id="path66" />
    <path
       d="m 90.524684,42.030809 a 5.669295,5.669295 0 1 0 0,-11.33859 5.669295,5.669295 0 1 0 0,11.33859 z"
       style="fill:none;stroke:#0000ff"
       id="path68" />
    <path
       d="m 90.524684,193.21186 a 5.6692915,5.6692915 0 1 0 0,-11.3385 5.6692915,5.6692915 0 1 0 0,11.3385 z"
       style="fill:none;stroke:#0000ff"
       id="path70" />
    <path
       d="m 35.094083,84.066759 a 2.83467,2.83467 0 1 0 0,-5.66934 2.83467,2.83467 0 1 0 0,5.66934 z"
       style="fill:none;stroke:#0000ff"
       id="path72" />
    <path
       d="m 32.787383,74.747909 a 2.834646,2.834646 0 1 0 0,-5.66929 2.834646,2.834646 0 1 0 0,5.66929 z"
       style="fill:none;stroke:#0000ff"
       id="path74" />
    <path
       d="m 30.480583,65.429099 a 2.834646,2.834646 0 1 0 0,-5.66929 2.834646,2.834646 0 1 0 0,5.66929 z"
       style="fill:none;stroke:#0000ff"
       id="path76" />
    <path
       d="m 28.173783,56.110679 a 2.834646,2.834646 0 1 0 0,-5.66929 2.834646,2.834646 0 1 0 0,5.66929 z"
       style="fill:none;stroke:#0000ff"
       id="path78" />
    <path
       d="m 35.094083,145.50676 a 2.83465,2.83465 0 1 0 0,-5.6693 2.83465,2.83465 0 1 0 0,5.6693 z"
       style="fill:none;stroke:#0000ff"
       id="path80" />
    <path
       d="m 32.787283,154.82556 a 2.83465,2.83465 0 1 0 0,-5.6693 2.83465,2.83465 0 1 0 0,5.6693 z"
       style="fill:none;stroke:#0000ff"
       id="path82" />
    <path
       d="m 30.480583,164.14436 a 2.83465,2.83465 0 1 0 0,-5.6693 2.83465,2.83465 0 1 0 0,5.6693 z"
       style="fill:none;stroke:#0000ff"
       id="path84" />
    <path
       d="m 28.173783,173.46276 a 2.83465,2.83465 0 1 0 0,-5.6693 2.83465,2.83465 0 1 0 0,5.6693 z"
       style="fill:none;stroke:#0000ff"
       id="path86" />
    <path
       d="M 189.73724,82.660729 V 141.24336"
       style="fill:none;stroke:#0000ff"
       id="path88" />
    <path
       d="m 189.73724,141.24336 h -9.44881"
       style="fill:none;stroke:#0000ff"
       id="path90" />
    <path
       d="M 180.28843,141.24336 V 82.660729"
       style="fill:none;stroke:#0000ff"
       id="path92" />
    <path
       d="m 180.28843,82.660729 h 9.44881"
       style="fill:none;stroke:#0000ff"
       id="path94" />
    <path
       d="M 133.04438,82.660729 V 141.24336"
       style="fill:none;stroke:#0000ff"
       id="path96" />
    <path
       d="m 133.04438,141.24336 h -9.4489"
       style="fill:none;stroke:#0000ff"
       id="path98" />
    <path
       d="M 123.59548,141.24336 V 82.660729"
       style="fill:none;stroke:#0000ff"
       id="path100" />
    <path
       d="m 123.59548,82.660729 h 9.4489"
       style="fill:none;stroke:#0000ff"
       id="path102" />
  </g>
  <desc
     id="desc106">programming-fixture-top.dxf - scale = 1.000000, origin = (0.000000, 0.000000), method = manual</desc>
</svg>
